<mxfile host="app.diagrams.net" modified="2022-12-14T11:54:34.189Z" agent="5.0 (Windows NT 10.0; Win64; x64) AppleWebKit/537.36 (KHTML, like Gecko) Chrome/107.0.0.0 Safari/537.36 OPR/93.0.0.0" version="20.6.2" etag="xgNjU3qCtugtIbae9Vtt" type="github">
  <diagram id="S52WFQGKbYVBqgAjaRG7" name="Sivu-1">
    <mxGraphModel dx="742" dy="438" grid="1" gridSize="10" guides="1" tooltips="1" connect="1" arrows="1" fold="1" page="1" pageScale="1" pageWidth="827" pageHeight="1169" math="0" shadow="0">
      <root>
        <mxCell id="0" />
        <mxCell id="1" parent="0" />
        <mxCell id="cxwBkOVBbpky53Y8S68h-3" value="" style="edgeStyle=orthogonalEdgeStyle;rounded=0;orthogonalLoop=1;jettySize=auto;html=1;fontSize=18;" edge="1" parent="1" source="cxwBkOVBbpky53Y8S68h-1" target="cxwBkOVBbpky53Y8S68h-2">
          <mxGeometry relative="1" as="geometry" />
        </mxCell>
        <mxCell id="cxwBkOVBbpky53Y8S68h-1" value="&lt;font style=&quot;font-size: 18px;&quot;&gt;Aloitus&lt;/font&gt;" style="ellipse;whiteSpace=wrap;html=1;" vertex="1" parent="1">
          <mxGeometry x="250" y="10" width="230" height="80" as="geometry" />
        </mxCell>
        <mxCell id="cxwBkOVBbpky53Y8S68h-12" value="" style="edgeStyle=orthogonalEdgeStyle;rounded=0;orthogonalLoop=1;jettySize=auto;html=1;fontSize=18;" edge="1" parent="1" source="cxwBkOVBbpky53Y8S68h-2" target="cxwBkOVBbpky53Y8S68h-11">
          <mxGeometry relative="1" as="geometry" />
        </mxCell>
        <mxCell id="cxwBkOVBbpky53Y8S68h-2" value="Määritellään muuttujat niin että arvotaan numeroiden 1-40 välillä Math.floor(Math.random()*40)+1;" style="rounded=0;whiteSpace=wrap;html=1;fontSize=18;" vertex="1" parent="1">
          <mxGeometry x="222.5" y="140" width="285" height="140" as="geometry" />
        </mxCell>
        <mxCell id="cxwBkOVBbpky53Y8S68h-14" value="" style="edgeStyle=orthogonalEdgeStyle;rounded=0;orthogonalLoop=1;jettySize=auto;html=1;fontSize=18;" edge="1" parent="1" source="cxwBkOVBbpky53Y8S68h-11" target="cxwBkOVBbpky53Y8S68h-13">
          <mxGeometry relative="1" as="geometry" />
        </mxCell>
        <mxCell id="cxwBkOVBbpky53Y8S68h-11" value="Tulostetaan 7 lukua järjestyksessä pienimmästä suurimpaan 1-40 väliltä" style="rounded=0;whiteSpace=wrap;html=1;fontSize=18;" vertex="1" parent="1">
          <mxGeometry x="220" y="350" width="290" height="60" as="geometry" />
        </mxCell>
        <mxCell id="cxwBkOVBbpky53Y8S68h-13" value="Loppu" style="ellipse;whiteSpace=wrap;html=1;fontSize=18;" vertex="1" parent="1">
          <mxGeometry x="225" y="460" width="280" height="80" as="geometry" />
        </mxCell>
      </root>
    </mxGraphModel>
  </diagram>
</mxfile>
